<svg width="32" height="32" viewBox="0 0 32 32" fill="none" xmlns="http://www.w3.org/2000/svg">
<path fill-rule="evenodd" clip-rule="evenodd" d="M14.6811 8.47891C15.2851 9.30861 15.588 10.2998 15.588 11.4562C15.588 12.646 15.2851 13.6056 14.6736 14.3295C14.3312 14.7341 13.8288 15.1054 13.1647 15.4395C14.1731 15.8033 14.9333 16.3768 15.4507 17.162C15.9624 17.9453 16.2202 18.8993 16.2202 20.0204C16.2202 21.1768 15.9267 22.2144 15.3378 23.1313C14.9652 23.7383 14.4986 24.2506 13.938 24.6664C13.3077 25.1434 12.5645 25.4682 11.7046 25.6464C10.8448 25.8228 9.91536 25.9081 8.91066 25.9081H0V6.40002H9.556C11.9681 6.43529 13.6745 7.12763 14.6811 8.47891ZM3.94168 9.78748V14.0919H8.75073C9.6068 14.0919 10.3048 13.9304 10.8429 13.6074C11.3773 13.2845 11.6463 12.7128 11.6463 11.8961C11.6463 10.9847 11.2926 10.3852 10.5852 10.0919C9.9718 9.88956 9.19287 9.78748 8.24649 9.78748H3.94168ZM3.94168 22.5225V17.3197H8.81093C9.6576 17.3271 10.318 17.4385 10.7884 17.6501C11.6294 18.0306 12.0471 18.7267 12.0471 19.7438C12.0471 20.9429 11.6143 21.7522 10.747 22.1791C10.271 22.4074 9.60115 22.5225 8.7432 22.5225H3.94168Z" fill="#2D2D2D"/>
<path d="M20.4479 9.73738H28.922V7.30954H20.4479V9.73738Z" fill="#2D2D2D"/>
<path fill-rule="evenodd" clip-rule="evenodd" d="M28.1751 11.7755C29.1967 12.2247 30.0377 12.9375 30.7 13.9101C31.3039 14.7676 31.6915 15.7625 31.8684 16.8929C31.9719 17.5537 32.0133 18.5115 31.9963 19.757H21.3415C21.4055 21.2029 21.9097 22.2182 22.8731 22.7992C23.4563 23.1611 24.1581 23.343 24.9822 23.343C25.8496 23.343 26.5589 23.1222 27.1026 22.6822C27.4018 22.4428 27.6652 22.1124 27.891 21.6892H31.795C31.6915 22.543 31.2174 23.4136 30.3783 24.2971C29.0688 25.6985 27.2343 26.4001 24.8768 26.4001C22.9295 26.4001 21.2117 25.8099 19.7272 24.6256C18.2352 23.4433 17.4939 21.5166 17.4939 18.8512C17.4939 16.3509 18.1656 14.4335 19.5071 13.099C20.8524 11.7681 22.5927 11.098 24.7357 11.098C26.0095 11.098 27.1553 11.3245 28.1751 11.7755ZM22.4554 15.0349C21.9154 15.5844 21.5748 16.3287 21.4356 17.2679H28.0264C27.9568 16.2656 27.6144 15.5083 27.0085 14.9867C26.3952 14.4688 25.6407 14.2108 24.7376 14.2108C23.7592 14.2108 22.9954 14.4855 22.4554 15.0349Z" fill="#2D2D2D"/>
</svg>
