<svg width="32" height="32" viewBox="0 0 32 32" fill="none" xmlns="http://www.w3.org/2000/svg">
<g clip-path="url(#clip0_90_1719)">
<path d="M15.9673 2.88205C20.2318 2.88205 20.7324 2.90106 22.418 2.9771C23.9768 3.0468 24.8196 3.3066 25.3835 3.52839C26.1312 3.81987 26.6635 4.16205 27.2211 4.71967C27.7788 5.2773 28.1273 5.80958 28.4124 6.5573C28.6279 7.12126 28.894 7.96403 28.9637 9.52284C29.0398 11.2084 29.0588 11.709 29.0588 15.9735C29.0588 20.2381 29.0398 20.7387 28.9637 22.4242C28.894 23.983 28.6342 24.8258 28.4124 25.3898C28.121 26.1375 27.7788 26.6698 27.2211 27.2274C26.6635 27.785 26.1312 28.1335 25.3835 28.4187C24.8196 28.6341 23.9768 28.9003 22.418 28.97C20.7324 29.046 20.2318 29.065 15.9673 29.065C11.7027 29.065 11.2021 29.046 9.5166 28.97C7.95778 28.9003 7.11501 28.6405 6.55105 28.4187C5.80333 28.1272 5.27105 27.785 4.71343 27.2274C4.1558 26.6698 3.80729 26.1375 3.52214 25.3898C3.3067 24.8258 3.04056 23.983 2.97085 22.4242C2.89481 20.7387 2.8758 20.2381 2.8758 15.9735C2.8758 11.709 2.89481 11.2084 2.97085 9.52284C3.04056 7.96403 3.30036 7.12126 3.52214 6.5573C3.81363 5.80958 4.1558 5.2773 4.71343 4.71967C5.27105 4.16205 5.80333 3.81354 6.55105 3.52839C7.11501 3.31294 7.95778 3.0468 9.5166 2.9771C11.2021 2.89472 11.7027 2.88205 15.9673 2.88205ZM15.9673 0.00521851C11.633 0.00521851 11.0881 0.0242284 9.38353 0.100268C7.68531 0.176308 6.52571 0.448783 5.51184 0.841654C4.45996 1.2472 3.57283 1.79849 2.68571 2.68561C1.79858 3.57274 1.25363 4.46621 0.841746 5.51175C0.448874 6.52562 0.176399 7.68522 0.10036 9.38977C0.02432 11.088 0.00531006 11.6329 0.00531006 15.9672C0.00531006 20.3015 0.02432 20.8464 0.10036 22.551C0.176399 24.2492 0.448874 25.4088 0.841746 26.429C1.24729 27.4809 1.79858 28.368 2.68571 29.2551C3.57283 30.1423 4.4663 30.6872 5.51184 31.0991C6.52571 31.492 7.68531 31.7644 9.38986 31.8405C11.0944 31.9165 11.633 31.9355 15.9736 31.9355C20.3142 31.9355 20.8528 31.9165 22.5574 31.8405C24.2556 31.7644 25.4152 31.492 26.4354 31.0991C27.4873 30.6935 28.3744 30.1423 29.2615 29.2551C30.1487 28.368 30.6936 27.4745 31.1055 26.429C31.4984 25.4151 31.7709 24.2555 31.8469 22.551C31.9229 20.8464 31.9419 20.3078 31.9419 15.9672C31.9419 11.6266 31.9229 11.088 31.8469 9.38344C31.7709 7.68522 31.4984 6.52562 31.1055 5.50542C30.7 4.45354 30.1487 3.56641 29.2615 2.67928C28.3744 1.79215 27.4809 1.2472 26.4354 0.835318C25.4215 0.442446 24.2619 0.169971 22.5574 0.0939314C20.8465 0.0242284 20.3015 0.00521851 15.9673 0.00521851Z" fill="white"/>
<path d="M15.9673 7.76772C11.4429 7.76772 7.76766 11.4366 7.76766 15.9673C7.76766 20.498 11.4429 24.1669 15.9673 24.1669C20.4916 24.1669 24.1669 20.4917 24.1669 15.9673C24.1669 11.443 20.4916 7.76772 15.9673 7.76772ZM15.9673 21.2901C13.0271 21.2901 10.6445 18.9075 10.6445 15.9673C10.6445 13.0271 13.0271 10.6446 15.9673 10.6446C18.9075 10.6446 21.29 13.0271 21.29 15.9673C21.29 18.9075 18.9075 21.2901 15.9673 21.2901Z" fill="white"/>
<path d="M24.4901 9.35833C25.5469 9.35833 26.4037 8.50155 26.4037 7.44466C26.4037 6.38778 25.5469 5.531 24.4901 5.531C23.4332 5.531 22.5764 6.38778 22.5764 7.44466C22.5764 8.50155 23.4332 9.35833 24.4901 9.35833Z" fill="white"/>
</g>
<defs>
<clipPath id="clip0_90_1719">
<rect width="32" height="32" fill="white"/>
</clipPath>
</defs>
</svg>
