<svg width="32" height="32" viewBox="0 0 32 32" fill="none" xmlns="http://www.w3.org/2000/svg">
<path d="M31.328 9.056C32 11.616 32 16.96 32 16.96C32 16.96 32 22.304 31.328 24.864C30.976 26.272 29.888 27.392 28.512 27.776C26.016 28.48 16 28.48 16 28.48C16 28.48 5.984 28.48 3.488 27.776C2.112 27.392 1.024 26.272 0.672 24.864C0 22.304 0 16.96 0 16.96C0 16.96 0 11.616 0.672 9.056C1.024 7.648 2.112 6.528 3.488 6.144C5.984 5.472 16 5.472 16 5.472C16 5.472 26.016 5.472 28.512 6.144C29.888 6.528 30.976 7.648 31.328 9.056ZM12.992 22.464L20.992 17.472L12.992 12.48V22.464Z" fill="white"/>
</svg>
