<svg width="90" height="20" viewBox="0 0 90 20" fill="none" xmlns="http://www.w3.org/2000/svg">
<g clip-path="url(#clip0_312_540)">
<path d="M31.7682 11.615L31.2318 13.1316H31.1871C31.0977 12.7896 30.9338 12.2692 30.6656 11.6447L27.7897 4.43351H24.9735V15.9268H26.8361V8.83458C26.8361 8.38853 26.8361 7.883 26.8212 7.25852C26.8063 6.94629 26.7765 6.70839 26.7616 6.52997H26.8063C26.8957 6.97602 27 7.30313 27.0745 7.51129L30.5314 15.8971H31.8427L35.2699 7.43695C35.3444 7.24366 35.4189 6.85707 35.4934 6.52997H35.5381C35.4934 7.37747 35.4636 8.13576 35.4487 8.59669V15.8822H37.4305V4.40378H34.7185L31.7682 11.615ZM39.3079 7.6451H41.245V15.8822H39.3079V7.6451ZM40.2914 4.16588C39.9636 4.16588 39.6954 4.28483 39.4718 4.49299C39.2483 4.70115 39.1291 4.96878 39.1291 5.29589C39.1291 5.60812 39.2483 5.87576 39.4718 6.08391C39.6954 6.29207 39.9636 6.39615 40.2914 6.39615C40.6192 6.39615 40.9023 6.2772 41.1109 6.08391C41.3344 5.87576 41.4536 5.60812 41.4536 5.29589C41.4536 4.98365 41.3344 4.71602 41.1109 4.49299C40.9172 4.28483 40.6341 4.16588 40.2914 4.16588ZM48.1142 7.57076C47.7566 7.49642 47.3841 7.45181 47.0265 7.45181C46.1473 7.45181 45.3427 7.6451 44.6722 8.03168C44.0016 8.41826 43.4652 8.95353 43.1225 9.62261C42.7649 10.3066 42.5861 11.0946 42.5861 12.0016C42.5861 12.7896 42.7649 13.4884 43.1076 14.1278C43.4503 14.7522 43.9271 15.2578 44.5679 15.5997C45.1788 15.9417 45.894 16.1201 46.6987 16.1201C47.6225 16.1201 48.4122 15.9268 49.0381 15.57L49.053 15.5551V13.7709L48.9785 13.8304C48.6954 14.0385 48.3675 14.217 48.0397 14.321C47.697 14.44 47.3841 14.4995 47.1159 14.4995C46.341 14.4995 45.7301 14.2764 45.298 13.7858C44.851 13.31 44.6275 12.6558 44.6275 11.838C44.6275 10.9905 44.851 10.3214 45.3129 9.83077C45.7748 9.34011 46.3857 9.08735 47.1308 9.08735C47.7566 9.08735 48.3973 9.29551 48.9785 9.71182L49.053 9.7713V7.883L49.0381 7.86813C48.7848 7.76405 48.5016 7.6451 48.1142 7.57076ZM54.5066 7.51129C54.0298 7.51129 53.5828 7.65997 53.1954 7.97221C52.8675 8.23984 52.644 8.62642 52.4503 9.08735H52.4354V7.6451H50.4983V15.8822H52.4354V11.6745C52.4354 10.9608 52.5844 10.366 52.9122 9.93485C53.2401 9.4888 53.6573 9.26577 54.1639 9.26577C54.3427 9.26577 54.5215 9.31037 54.745 9.34011C54.9536 9.39958 55.1026 9.45906 55.2069 9.5334L55.2814 9.59287V7.65997L55.2367 7.6451C55.1026 7.55589 54.8344 7.51129 54.5066 7.51129ZM59.7814 7.46668C58.4255 7.46668 57.3377 7.86813 56.5778 8.65616C55.803 9.44419 55.4305 10.5296 55.4305 11.8975C55.4305 13.1762 55.8179 14.217 56.5629 14.9753C57.3079 15.7187 58.3212 16.1053 59.5877 16.1053C60.9139 16.1053 61.9718 15.7038 62.7318 14.9009C63.5066 14.098 63.8791 13.0275 63.8791 11.7042C63.8791 10.3958 63.5215 9.35498 62.7914 8.59669C62.091 7.83839 61.0629 7.46668 59.7814 7.46668ZM61.3311 13.8007C60.9735 14.2616 60.4073 14.4846 59.7069 14.4846C59.0066 14.4846 58.4404 14.2616 58.0381 13.7709C57.6357 13.31 57.442 12.6409 57.442 11.7934C57.442 10.9162 57.6507 10.2471 58.0381 9.7713C58.4404 9.29551 58.9917 9.05761 59.692 9.05761C60.3775 9.05761 60.9139 9.28064 61.3013 9.74156C61.6887 10.2025 61.8973 10.8716 61.8973 11.7488C61.8675 12.6409 61.7036 13.3397 61.3311 13.8007ZM68.2003 11.0649C67.5894 10.8121 67.202 10.6188 67.0232 10.4552C66.8742 10.3066 66.7997 10.0984 66.7997 9.83077C66.7997 9.60774 66.8891 9.38472 67.1126 9.23603C67.3361 9.08735 67.5894 9.013 67.9619 9.013C68.2897 9.013 68.6324 9.07248 68.9603 9.16169C69.2881 9.2509 69.5861 9.38472 69.8245 9.56314L69.899 9.62261V7.80866L69.8543 7.79379C69.6308 7.70458 69.3328 7.61537 68.9752 7.54103C68.6175 7.48155 68.2897 7.45181 68.0215 7.45181C67.0977 7.45181 66.3377 7.67484 65.7417 8.1655C65.1457 8.62642 64.8626 9.2509 64.8626 9.97945C64.8626 10.366 64.9222 10.708 65.0563 10.9905C65.1904 11.273 65.3841 11.5406 65.6523 11.7637C65.9205 11.9718 66.3079 12.2097 66.8444 12.4328C67.2914 12.626 67.6341 12.7747 67.8427 12.8937C68.0513 13.0126 68.1854 13.1464 68.2897 13.2505C68.3642 13.3695 68.4089 13.5182 68.4089 13.7114C68.4089 14.2616 67.9917 14.5292 67.1424 14.5292C66.8146 14.5292 66.4718 14.4697 66.0695 14.3359C65.6672 14.2021 65.2947 14.0088 64.9818 13.7858L64.9073 13.7263V15.6146L64.952 15.6295C65.2351 15.7633 65.5778 15.8525 65.995 15.9566C66.4122 16.0309 66.7848 16.0904 67.1126 16.0904C68.1109 16.0904 68.9305 15.8674 69.5116 15.3767C70.1076 14.9009 70.4205 14.2913 70.4205 13.5033C70.4205 12.9531 70.2715 12.4625 69.9437 12.0908C69.5116 11.7339 68.9752 11.3622 68.2003 11.0649ZM75.5314 7.46668C74.1755 7.46668 73.0877 7.86813 72.3278 8.65616C71.5679 9.44419 71.1805 10.5296 71.1805 11.8975C71.1805 13.1762 71.5679 14.217 72.3129 14.9753C73.0579 15.7187 74.0712 16.1053 75.3377 16.1053C76.6639 16.1053 77.7218 15.7038 78.4818 14.9009C79.2566 14.098 79.6291 13.0275 79.6291 11.7042C79.6291 10.3958 79.2715 9.35498 78.5414 8.59669C77.841 7.83839 76.8129 7.46668 75.5314 7.46668ZM77.0662 13.8007C76.7086 14.2616 76.1424 14.4846 75.442 14.4846C74.7268 14.4846 74.1755 14.2616 73.7732 13.7709C73.3708 13.31 73.1771 12.6409 73.1771 11.7934C73.1771 10.9162 73.3857 10.2471 73.7732 9.7713C74.1755 9.29551 74.7268 9.05761 75.4271 9.05761C76.0977 9.05761 76.649 9.28064 77.0364 9.74156C77.4238 10.2025 77.6324 10.8716 77.6324 11.7488C77.6324 12.6409 77.4387 13.3397 77.0662 13.8007ZM89.9851 9.23603V7.6451H88.0331V5.20667L87.9735 5.22154L86.1258 5.77168L86.0811 5.78655V7.6451H83.1606V6.60431C83.1606 6.12852 83.2798 5.75681 83.4884 5.51891C83.697 5.28102 84.0099 5.16207 84.3973 5.16207C84.6656 5.16207 84.9487 5.22154 85.2616 5.35536L85.3361 5.39996V3.71983L85.2914 3.70496C85.0232 3.61575 84.6655 3.55627 84.2036 3.55627C83.6225 3.55627 83.1159 3.69009 82.654 3.91312C82.192 4.16588 81.8493 4.50786 81.596 4.96878C81.3427 5.41483 81.2086 5.92036 81.2086 6.50023V7.6451H79.8526V9.22116H81.2086V15.8822H83.1606V9.23603H86.0811V13.4735C86.0811 15.2132 86.9007 16.0904 88.5397 16.0904C88.8079 16.0904 89.091 16.0458 89.3593 16.0012C89.6424 15.9417 89.851 15.8674 89.9702 15.8079L89.9851 15.793V14.2021L89.9106 14.2616C89.7914 14.3359 89.6871 14.3954 89.5083 14.44C89.3593 14.4846 89.2251 14.4995 89.1208 14.4995C88.7334 14.4995 88.4652 14.4103 88.2715 14.1872C88.0927 13.9791 88.0033 13.6371 88.0033 13.1316V9.23603H89.9851Z" fill="#737373"/>
<path d="M0 0.567719H9.13411V9.68209H0V0.567719Z" fill="#F25022"/>
<path d="M10.0877 0.567719H19.2218V9.68209H10.0877V0.567719Z" fill="#7FBA00"/>
<path d="M0 10.6337H9.13411V19.748H0V10.6337Z" fill="#00A4EF"/>
<path d="M10.0877 10.6337H19.2218V19.748H10.0877V10.6337Z" fill="#FFB900"/>
</g>
<defs>
<clipPath id="clip0_312_540">
<rect width="90" height="19.1803" fill="white" transform="translate(0 0.567719)"/>
</clipPath>
</defs>
</svg>
